<svg width="219" height="92" viewBox="0 0 219 92" fill="none" xmlns="http://www.w3.org/2000/svg">
<path d="M178.016 48.7773C178.016 42.6494 173.032 37.6659 166.905 37.6659C160.777 37.6659 155.793 42.6494 155.793 48.7773C155.793 54.9052 160.777 59.8886 166.905 59.8886C173.032 59.8886 178.016 54.9052 178.016 48.7773ZM159.497 69.1481C159.497 70.1722 158.669 71 157.645 71H153.941C148.836 71 144.682 66.8462 144.682 61.7405V58.0367C144.682 57.0126 145.51 56.1848 146.534 56.1848C147.558 56.1848 148.386 57.0126 148.386 58.0367V61.7405C148.386 64.8036 150.878 67.2962 153.941 67.2962H157.645C158.669 67.2962 159.497 68.124 159.497 69.1481ZM189.127 58.0367V61.7405C189.127 66.8462 184.973 71 179.868 71H176.164C175.14 71 174.312 70.1722 174.312 69.1481C174.312 68.124 175.14 67.2962 176.164 67.2962H179.868C182.931 67.2962 185.423 64.8036 185.423 61.7405V58.0367C185.423 57.0126 186.251 56.1848 187.275 56.1848C188.299 56.1848 189.127 57.0126 189.127 58.0367ZM189.127 35.814V39.5178C189.127 40.5419 188.299 41.3697 187.275 41.3697C186.251 41.3697 185.423 40.5419 185.423 39.5178V35.814C185.423 32.751 182.931 30.2583 179.868 30.2583H176.164C175.14 30.2583 174.312 29.4305 174.312 28.4064C174.312 27.3823 175.14 26.5545 176.164 26.5545H179.868C184.973 26.5545 189.127 30.7083 189.127 35.814ZM144.682 39.5178V35.814C144.682 30.7083 148.836 26.5545 153.941 26.5545H157.645C158.669 26.5545 159.497 27.3823 159.497 28.4064C159.497 29.4305 158.669 30.2583 157.645 30.2583H153.941C150.878 30.2583 148.386 32.751 148.386 35.814V39.5178C148.386 40.5419 147.558 41.3697 146.534 41.3697C145.51 41.3697 144.682 40.5419 144.682 39.5178Z" fill="#00CEC9"/>
<path d="M4.34583 22.6374C6.34028 22.2575 8.52468 21.9726 10.899 21.7826C13.3209 21.5452 15.7189 21.4265 18.0933 21.4265C20.5626 21.4265 23.0319 21.6402 25.5012 22.0676C28.018 22.4474 30.2737 23.2547 32.2681 24.4894C34.2626 25.6766 35.8771 27.3623 37.1118 29.5467C38.3939 31.6836 39.035 34.4854 39.035 37.9519C39.035 41.086 38.4889 43.7453 37.3967 45.9297C36.3045 48.0666 34.8562 49.8236 33.0516 51.2007C31.2471 52.5779 29.1815 53.5751 26.8546 54.1924C24.5752 54.8098 22.2009 55.1184 19.7316 55.1184C19.4941 55.1184 19.1143 55.1184 18.5919 55.1184C18.0695 55.1184 17.5234 55.1184 16.9536 55.1184C16.3838 55.0709 15.8139 55.0234 15.2441 54.976C14.7217 54.9285 14.3418 54.881 14.1044 54.8335V72H4.34583V22.6374ZM18.8768 29.8317C17.9271 29.8317 17.0248 29.8791 16.1701 29.9741C15.3153 30.0216 14.6267 30.0928 14.1044 30.1878V46.3571C14.2943 46.4046 14.5793 46.4521 14.9591 46.4995C15.339 46.547 15.7427 46.5945 16.1701 46.642C16.5974 46.642 17.0011 46.642 17.381 46.642C17.8084 46.642 18.117 46.642 18.307 46.642C19.5891 46.642 20.8475 46.5233 22.0822 46.2859C23.3643 46.0484 24.504 45.621 25.5012 45.0037C26.4985 44.3389 27.282 43.4366 27.8518 42.297C28.4692 41.1573 28.7778 39.6614 28.7778 37.8095C28.7778 36.2424 28.4929 34.9602 27.9231 33.963C27.3532 32.9183 26.5934 32.0873 25.6437 31.47C24.7414 30.8526 23.6967 30.4252 22.5096 30.1878C21.3224 29.9504 20.1115 29.8317 18.8768 29.8317ZM70.3486 68.9371C68.924 70.0768 66.9771 71.0503 64.5077 71.8575C62.0859 72.6173 59.4979 72.9972 56.7436 72.9972C50.9977 72.9972 46.7951 71.3352 44.1359 68.0111C41.4766 64.6395 40.147 60.0333 40.147 54.1924C40.147 47.9242 41.6428 43.223 44.6345 40.0888C47.6262 36.9547 51.8287 35.3876 57.2422 35.3876C59.0467 35.3876 60.8038 35.6251 62.5133 36.0999C64.2228 36.5748 65.7424 37.3583 67.072 38.4505C68.4017 39.5427 69.4701 41.0148 70.2774 42.8668C71.0847 44.7188 71.4883 47.0219 71.4883 49.7761C71.4883 50.7734 71.4171 51.8418 71.2746 52.9815C71.1796 54.1212 71.0134 55.3084 70.776 56.543H49.4069C49.5494 59.5347 50.3092 61.7903 51.6863 63.3099C53.1109 64.8295 55.3903 65.5893 58.5244 65.5893C60.4714 65.5893 62.2046 65.3044 63.7242 64.7345C65.2913 64.1172 66.4784 63.4998 67.2857 62.8825L70.3486 68.9371ZM57.0998 42.7956C54.678 42.7956 52.8735 43.5316 51.6863 45.0037C50.5466 46.4283 49.858 48.3515 49.6206 50.7734H62.8694C63.0594 48.2091 62.6557 46.2384 61.6585 44.8613C60.7088 43.4841 59.1892 42.7956 57.0998 42.7956ZM92.3083 62.1702C92.3083 61.2205 91.9046 60.4607 91.0974 59.8908C90.2901 59.321 89.2929 58.7986 88.1057 58.3238C86.9185 57.8489 85.6126 57.374 84.188 56.8992C82.7634 56.3768 81.4575 55.6883 80.2704 54.8335C79.0832 53.9312 78.086 52.8153 77.2787 51.4857C76.4714 50.1086 76.0678 48.3515 76.0678 46.2146C76.0678 42.7006 77.1125 40.0176 79.2019 38.1656C81.2913 36.3136 84.3067 35.3876 88.2481 35.3876C90.9549 35.3876 93.4005 35.6725 95.5849 36.2424C97.7693 36.8122 99.4788 37.4533 100.713 38.1656L98.6478 44.8613C97.5556 44.4339 96.1785 43.9827 94.5164 43.5079C92.8544 43.033 91.1686 42.7956 89.4591 42.7956C86.7048 42.7956 85.3277 43.864 85.3277 46.0009C85.3277 46.8557 85.7313 47.5443 86.5386 48.0666C87.3459 48.589 88.3431 49.0876 89.5303 49.5625C90.7175 49.9898 92.0234 50.4647 93.448 50.9871C94.8726 51.5094 96.1785 52.198 97.3656 53.0527C98.5528 53.86 99.55 54.9285 100.357 56.2581C101.165 57.5877 101.568 59.2973 101.568 61.3867C101.568 64.9957 100.405 67.8449 98.0779 69.9343C95.7986 71.9763 92.3558 72.9972 87.7495 72.9972C85.2327 72.9972 82.8584 72.6648 80.6265 72C78.4421 71.3827 76.6613 70.6466 75.2842 69.7919L77.8485 62.8825C78.9407 63.4998 80.3891 64.1172 82.1936 64.7345C83.9981 65.3044 85.8501 65.5893 87.7495 65.5893C89.1267 65.5893 90.2189 65.3281 91.0261 64.8057C91.8809 64.2834 92.3083 63.4049 92.3083 62.1702ZM128.946 72V51.7706C128.946 48.8739 128.542 46.7845 127.735 45.5023C126.928 44.2202 125.456 43.5791 123.319 43.5791C121.752 43.5791 120.303 44.1252 118.974 45.2174C117.691 46.2621 116.837 47.6155 116.409 49.2775V72H107.149V22.1388H116.409V40.3737H116.694C117.834 38.8542 119.235 37.6432 120.897 36.741C122.559 35.8387 124.672 35.3876 127.236 35.3876C129.041 35.3876 130.632 35.6251 132.009 36.0999C133.386 36.5748 134.526 37.3583 135.428 38.4505C136.378 39.5427 137.066 41.0386 137.493 42.938C137.968 44.79 138.206 47.0931 138.206 49.8474V72H128.946ZM194.451 36.3848H199.366V29.6892L208.626 27.0537V36.3848H217.316V44.2202H208.626V57.8964C208.626 60.3657 208.863 62.1465 209.338 63.2387C209.86 64.2834 210.81 64.8057 212.187 64.8057C213.137 64.8057 213.944 64.7108 214.609 64.5208C215.321 64.3309 216.105 64.0459 216.96 63.6661L218.598 70.7891C217.316 71.4064 215.82 71.9288 214.11 72.3562C212.401 72.7835 210.668 72.9972 208.911 72.9972C205.634 72.9972 203.212 72.1662 201.645 70.5042C200.126 68.7946 199.366 66.0167 199.366 62.1702V44.2202H194.451V36.3848Z" fill="black"/>
</svg>
